<svg width="365" height="338" viewBox="0 0 365 338" fill="none" xmlns="http://www.w3.org/2000/svg">
<g id="ghost">
<g id="Main Skull">
<mask id="mask0" style="mask-type:alpha" maskUnits="userSpaceOnUse" x="5" y="8" width="351" height="330">
<path id="Union" d="M243.495 16.3224C203.896 5.72762 161.644 5.57685 122.044 16.1716L114.678 18.1424C47.7176 36.0576 2.25618 98.1686 5.42221 167.412L6.11824 182.635C8.37544 232.001 39.6691 275.339 85.8197 293.011C91.0474 295.013 95.4708 298.68 98.407 303.446L108.953 320.564C113.185 327.432 119.753 332.541 127.451 334.952L128.052 335.14C129.513 335.598 131.044 335.797 132.574 335.728C139.867 335.402 145.986 330.12 147.373 322.953L147.596 321.802C148.769 315.741 157.364 315.523 158.843 321.518L159.206 322.988C161.017 330.329 167.161 335.797 174.662 336.745L180.325 337.46C182.169 337.693 184.036 337.693 185.88 337.46L190.939 336.821C198.805 335.828 205.246 330.094 207.145 322.397L207.406 321.34C208.956 315.056 217.92 315.148 219.341 321.462L219.707 323.089C221.313 330.223 227.495 335.399 234.799 335.726C236.37 335.796 237.941 335.591 239.441 335.122L239.896 334.979C247.63 332.557 254.178 327.327 258.25 320.319L268.135 303.309C270.855 298.628 275.02 294.956 280.005 292.843C321.95 275.071 350.493 235.404 354.019 189.987L355.334 173.043C360.923 101.041 313.26 34.9877 243.495 16.3224Z" fill="#FFF0D3"/>
</mask>
<g mask="url(#mask0)">
<g id="Union_2" filter="url(#filter0_di)">
<path d="M243.495 16.3224C203.896 5.72762 161.644 5.57685 122.044 16.1716L114.678 18.1424C47.7176 36.0576 2.25618 98.1686 5.42221 167.412L6.11824 182.635C8.37544 232.001 39.6691 275.339 85.8197 293.011C91.0474 295.013 95.4708 298.68 98.407 303.446L108.953 320.564C113.185 327.432 119.753 332.541 127.451 334.952L128.052 335.14C129.513 335.598 131.044 335.797 132.574 335.728C139.867 335.402 145.986 330.12 147.373 322.953L147.596 321.802C148.769 315.741 157.364 315.523 158.843 321.518L159.206 322.988C161.017 330.329 167.161 335.797 174.662 336.745L180.325 337.46C182.169 337.693 184.036 337.693 185.88 337.46L190.939 336.821C198.805 335.828 205.246 330.094 207.145 322.397L207.406 321.34C208.956 315.056 217.92 315.148 219.341 321.462L219.707 323.089C221.313 330.223 227.495 335.399 234.799 335.726C236.37 335.796 237.941 335.591 239.441 335.122L239.896 334.979C247.63 332.557 254.178 327.327 258.25 320.319L268.135 303.309C270.855 298.628 275.02 294.956 280.005 292.843C321.95 275.071 350.493 235.404 354.019 189.987L355.334 173.043C360.923 101.041 313.26 34.9877 243.495 16.3224Z" fill="url(#paint0_radial)"/>
</g>
<g id="Ellipse 8" filter="url(#filter1_f)">
<ellipse cx="127.879" cy="21.5525" rx="61.8913" ry="24.8322" fill="white"/>
</g>
<g id="Ellipse 9" filter="url(#filter2_f)">
<ellipse cx="127.878" cy="21.5527" rx="39.5922" ry="15.9301" fill="white"/>
</g>
<g id="Rectangle 4" opacity="0.4" filter="url(#filter3_f)">
<path d="M66.3122 247.081C64.5918 223.329 81.5505 202.298 105.128 198.945L159.582 191.202C170.701 189.621 181.988 189.621 193.108 191.202L247.342 198.914C271.017 202.281 288.015 223.446 286.192 247.29C283.257 285.674 251.256 315.322 212.76 315.322H139.675C101.114 315.322 69.0981 285.542 66.3122 247.081Z" fill="url(#paint1_linear)"/>
</g>
<g id="Ellipse 10" filter="url(#filter4_f)">
<ellipse rx="42.7763" ry="9.81494" transform="matrix(0.762633 -0.646832 0.653868 0.756609 263.851 313.068)" fill="white"/>
</g>
<g id="Ellipse 13" filter="url(#filter5_f)">
<ellipse rx="14.5938" ry="5.19992" transform="matrix(0.762633 -0.646832 0.653868 0.756609 255.448 325.92)" fill="white"/>
</g>
<g id="Ellipse 11" filter="url(#filter6_f)">
<ellipse rx="21.4795" ry="11.0653" transform="matrix(0.750175 -0.661239 0.639384 0.768888 203.591 334.901)" fill="white"/>
</g>
<g id="Ellipse 12" filter="url(#filter7_f)">
<ellipse rx="30.8716" ry="11.0653" transform="matrix(0.750175 -0.661239 0.639384 0.768888 144.46 337.684)" fill="white"/>
</g>
</g>
</g>
<g id="Group 7">
<g id="Ellipse 1" filter="url(#filter8_dd)">
<ellipse cx="90.021" cy="147.128" rx="47.1011" ry="48.493" fill="url(#paint2_linear)"/>
</g>
<g id="Ellipse 2" filter="url(#filter9_dd)">
<ellipse cx="266.998" cy="147.128" rx="47.1011" ry="48.493" fill="url(#paint3_linear)"/>
</g>
</g>
</g>
<defs>
<filter id="filter0_di" x="-14.3278" y="-6.75014" width="380.794" height="352.698" filterUnits="userSpaceOnUse" color-interpolation-filters="sRGB">
<feFlood flood-opacity="0" result="BackgroundImageFix"/>
<feColorMatrix in="SourceAlpha" type="matrix" values="0 0 0 0 0 0 0 0 0 0 0 0 0 0 0 0 0 0 127 0" result="hardAlpha"/>
<feOffset dx="7.71901" dy="5.34393"/>
<feGaussianBlur stdDeviation="1.48442"/>
<feColorMatrix type="matrix" values="0 0 0 0 1 0 0 0 0 0 0 0 0 0 0.12 0 0 0 1 0"/>
<feBlend mode="normal" in2="BackgroundImageFix" result="effect1_dropShadow"/>
<feBlend mode="normal" in="SourceGraphic" in2="effect1_dropShadow" result="shape"/>
<feColorMatrix in="SourceAlpha" type="matrix" values="0 0 0 0 0 0 0 0 0 0 0 0 0 0 0 0 0 0 127 0" result="hardAlpha"/>
<feOffset dx="-19.5944" dy="-15.0507"/>
<feGaussianBlur stdDeviation="15.0507"/>
<feComposite in2="hardAlpha" operator="arithmetic" k2="-1" k3="1"/>
<feColorMatrix type="matrix" values="0 0 0 0 0 0 0 0 0 1 0 0 0 0 0.94 0 0 0 0.31 0"/>
<feBlend mode="normal" in2="shape" result="effect2_innerShadow"/>
</filter>
<filter id="filter1_f" x="6.61031" y="-62.6567" width="242.536" height="168.418" filterUnits="userSpaceOnUse" color-interpolation-filters="sRGB">
<feFlood flood-opacity="0" result="BackgroundImageFix"/>
<feBlend mode="normal" in="SourceGraphic" in2="BackgroundImageFix" result="shape"/>
<feGaussianBlur stdDeviation="29.6885" result="effect1_foregroundBlur"/>
</filter>
<filter id="filter2_f" x="28.9091" y="-53.7544" width="197.938" height="150.614" filterUnits="userSpaceOnUse" color-interpolation-filters="sRGB">
<feFlood flood-opacity="0" result="BackgroundImageFix"/>
<feBlend mode="normal" in="SourceGraphic" in2="BackgroundImageFix" result="shape"/>
<feGaussianBlur stdDeviation="29.6885" result="effect1_foregroundBlur"/>
</filter>
<filter id="filter3_f" x="-22.8731" y="100.951" width="398.265" height="303.437" filterUnits="userSpaceOnUse" color-interpolation-filters="sRGB">
<feFlood flood-opacity="0" result="BackgroundImageFix"/>
<feBlend mode="normal" in="SourceGraphic" in2="BackgroundImageFix" result="shape"/>
<feGaussianBlur stdDeviation="44.5327" result="effect1_foregroundBlur"/>
</filter>
<filter id="filter4_f" x="189.033" y="242.848" width="149.636" height="140.439" filterUnits="userSpaceOnUse" color-interpolation-filters="sRGB">
<feFlood flood-opacity="0" result="BackgroundImageFix"/>
<feBlend mode="normal" in="SourceGraphic" in2="BackgroundImageFix" result="shape"/>
<feGaussianBlur stdDeviation="20.7819" result="effect1_foregroundBlur"/>
</filter>
<filter id="filter5_f" x="220.057" y="291.94" width="70.7827" height="67.9605" filterUnits="userSpaceOnUse" color-interpolation-filters="sRGB">
<feFlood flood-opacity="0" result="BackgroundImageFix"/>
<feBlend mode="normal" in="SourceGraphic" in2="BackgroundImageFix" result="shape"/>
<feGaussianBlur stdDeviation="11.8754" result="effect1_foregroundBlur"/>
</filter>
<filter id="filter6_f" x="144.424" y="276.779" width="118.333" height="116.246" filterUnits="userSpaceOnUse" color-interpolation-filters="sRGB">
<feFlood flood-opacity="0" result="BackgroundImageFix"/>
<feBlend mode="normal" in="SourceGraphic" in2="BackgroundImageFix" result="shape"/>
<feGaussianBlur stdDeviation="20.7819" result="effect1_foregroundBlur"/>
</filter>
<filter id="filter7_f" x="78.6734" y="273.999" width="131.572" height="127.37" filterUnits="userSpaceOnUse" color-interpolation-filters="sRGB">
<feFlood flood-opacity="0" result="BackgroundImageFix"/>
<feBlend mode="normal" in="SourceGraphic" in2="BackgroundImageFix" result="shape"/>
<feGaussianBlur stdDeviation="20.7819" result="effect1_foregroundBlur"/>
</filter>
<filter id="filter8_dd" x="10.5249" y="79.579" width="172.331" height="178.926" filterUnits="userSpaceOnUse" color-interpolation-filters="sRGB">
<feFlood flood-opacity="0" result="BackgroundImageFix"/>
<feColorMatrix in="SourceAlpha" type="matrix" values="0 0 0 0 0 0 0 0 0 0 0 0 0 0 0 0 0 0 127 0" result="hardAlpha"/>
<feOffset dx="6.66956" dy="23.8198"/>
<feGaussianBlur stdDeviation="19.5323"/>
<feColorMatrix type="matrix" values="0 0 0 0 0.909804 0 0 0 0 0.164706 0 0 0 0 0.254902 0 0 0 0.77 0"/>
<feBlend mode="normal" in2="BackgroundImageFix" result="effect1_dropShadow"/>
<feColorMatrix in="SourceAlpha" type="matrix" values="0 0 0 0 0 0 0 0 0 0 0 0 0 0 0 0 0 0 127 0" result="hardAlpha"/>
<feOffset dx="-4.76397" dy="-4.76397"/>
<feGaussianBlur stdDeviation="7.14595"/>
<feColorMatrix type="matrix" values="0 0 0 0 1 0 0 0 0 1 0 0 0 0 1 0 0 0 0.59 0"/>
<feBlend mode="normal" in2="effect1_dropShadow" result="effect2_dropShadow"/>
<feBlend mode="normal" in="SourceGraphic" in2="effect2_dropShadow" result="shape"/>
</filter>
<filter id="filter9_dd" x="174.162" y="79.5791" width="172.331" height="178.926" filterUnits="userSpaceOnUse" color-interpolation-filters="sRGB">
<feFlood flood-opacity="0" result="BackgroundImageFix"/>
<feColorMatrix in="SourceAlpha" type="matrix" values="0 0 0 0 0 0 0 0 0 0 0 0 0 0 0 0 0 0 127 0" result="hardAlpha"/>
<feOffset dx="-6.66956" dy="23.8198"/>
<feGaussianBlur stdDeviation="19.5323"/>
<feColorMatrix type="matrix" values="0 0 0 0 0.908677 0 0 0 0 0.163858 0 0 0 0 0.253237 0 0 0 0.94 0"/>
<feBlend mode="normal" in2="BackgroundImageFix" result="effect1_dropShadow"/>
<feColorMatrix in="SourceAlpha" type="matrix" values="0 0 0 0 0 0 0 0 0 0 0 0 0 0 0 0 0 0 127 0" result="hardAlpha"/>
<feOffset dx="4.76397" dy="-4.76397"/>
<feGaussianBlur stdDeviation="7.14595"/>
<feColorMatrix type="matrix" values="0 0 0 0 1 0 0 0 0 1 0 0 0 0 1 0 0 0 0.59 0"/>
<feBlend mode="normal" in2="effect1_dropShadow" result="effect2_dropShadow"/>
<feBlend mode="normal" in="SourceGraphic" in2="effect2_dropShadow" result="shape"/>
</filter>
<radialGradient id="paint0_radial" cx="0" cy="0" r="1" gradientUnits="userSpaceOnUse" gradientTransform="translate(182.488 47.7902) rotate(91.086) scale(300.148 235.61)">
<stop stop-color="#FFE5EA"/>
<stop offset="0.420971" stop-color="#FEA3B3"/>
<stop offset="0.74856" stop-color="#FF5B79"/>
<stop offset="0.883981" stop-color="#DE2C4D"/>
<stop offset="1" stop-color="#F08B98"/>
</radialGradient>
<linearGradient id="paint1_linear" x1="176.345" y1="188.818" x2="176.345" y2="315.322" gradientUnits="userSpaceOnUse">
<stop stop-color="#9E4722"/>
<stop offset="1" stop-color="#BB391C" stop-opacity="0.87"/>
</linearGradient>
<linearGradient id="paint2_linear" x1="90.021" y1="105.591" x2="90.0604" y2="204.217" gradientUnits="userSpaceOnUse">
<stop stop-color="#2E1E65"/>
<stop offset="1" stop-color="#11082F"/>
</linearGradient>
<linearGradient id="paint3_linear" x1="266.998" y1="105.591" x2="267.037" y2="204.217" gradientUnits="userSpaceOnUse">
<stop stop-color="#2E1E65"/>
<stop offset="1" stop-color="#11082F"/>
</linearGradient>
</defs>
</svg>
