<svg width="1079" height="1020" viewBox="0 0 1079 1020" fill="none" xmlns="http://www.w3.org/2000/svg">
<g id="yellow-ghost">
<g id="yellow-fire">
<g id="Rectangle 7" filter="url(#filter0_f)">
<path d="M119 119H960.16L809.561 707.619L342.348 803.064L119 119Z" fill="url(#paint0_linear)"/>
</g>
<g id="Ellipse 7" filter="url(#filter1_f)">
<ellipse cx="544.054" cy="663.367" rx="244.592" ry="237.633" fill="url(#paint1_linear)"/>
</g>
<g id="Ellipse 8" opacity="0.4" filter="url(#filter2_f)">
<ellipse cx="544.054" cy="663.368" rx="224.21" ry="217.747" fill="url(#paint2_linear)"/>
</g>
<g id="Vector 2" opacity="0.3" filter="url(#filter3_f)">
<path d="M525.909 169.211C542.314 373.287 456.061 512.734 437.418 316.862C312.387 381.738 350.126 575.306 255.216 499.863C272.529 656.971 389.219 712.256 324.555 700.469C435.954 804.304 608.49 810.478 680.208 727.971C666.29 727.971 664.924 727.129 664.924 712.256C776.19 691.419 830.072 617.872 828.896 567.71C822.819 581.751 816.17 605.685 786.295 609.544C748.952 614.367 820.957 447.772 773.322 413.367C680.208 509.006 680.208 262.425 525.909 169.211Z" fill="url(#paint3_linear)"/>
</g>
<g id="Vector 1" filter="url(#filter4_f)">
<path d="M606.111 299.959C686.003 325.561 687.743 533.549 733.191 424.255C764.061 514.017 704.399 653.38 784.669 582.424C770.027 730.188 671.336 782.185 726.026 771.099C631.81 868.758 485.887 874.565 425.231 796.966C437.002 796.966 438.157 796.174 438.157 782.185C344.054 762.587 298.483 693.414 299.477 646.236C304.617 659.442 310.24 681.952 335.507 685.581C367.091 690.117 306.192 533.431 346.48 501.072C385.723 650.477 362.852 453.574 456.571 401.049C476.458 533.537 624.85 417.942 606.111 299.959Z" fill="url(#paint4_linear)"/>
</g>
<g id="Vector 4" filter="url(#filter5_f)">
<path d="M671.232 319.648C686.876 443.243 565.035 397.386 583.825 209.728C508.71 265.408 468.198 359.56 430.458 396.155C407.631 418.289 335.818 400.132 368.812 319.648C290.629 399.745 333.604 510.342 265.407 447.858C230.11 929.586 961.446 962.935 764.764 407.728C731.423 539.294 750.854 365.901 671.232 319.648Z" fill="url(#paint5_radial)"/>
</g>
<g id="Shadow" opacity="0.1" filter="url(#filter6_f)">
<path d="M550.082 287.53C477.456 307.396 467.72 499.681 426.406 414.876C342.75 485.453 370.875 586.163 297.905 531.106C148.934 941.705 988.397 963.697 777.946 474.48C742.272 590.409 763.063 437.625 677.867 396.869C694.606 505.774 529.978 452.883 550.082 287.53Z" fill="url(#paint6_linear)"/>
</g>
<g id="Vector 5" filter="url(#filter7_f)">
<path d="M549.274 329.539C490.501 347.278 482.622 518.976 449.188 443.251C381.489 506.272 404.25 596.2 345.198 547.037C224.642 913.677 903.983 933.314 733.675 496.474C704.805 599.991 721.63 463.564 652.685 427.172C666.231 524.417 533.004 477.189 549.274 329.539Z" fill="url(#paint7_linear)"/>
</g>
<g id="Ellipse 10" filter="url(#filter8_f)">
<ellipse cx="528.146" cy="490.86" rx="81.0337" ry="45.2397" fill="url(#paint8_linear)"/>
</g>
</g>
<g id="ghost">
<mask id="mask0" style="mask-type:alpha" maskUnits="userSpaceOnUse" x="354" y="487" width="384" height="351">
<path id="Union" d="M612.361 496.143C570.175 485.18 525.887 485.18 483.701 496.143L470.581 499.553C399.54 518.014 351.149 583.724 354.601 657.044L355.251 670.866C357.781 724.592 392.134 771.622 442.546 790.371V790.371C448.182 792.468 452.978 796.352 456.199 801.431L467.539 819.308C472.267 826.763 479.513 832.275 487.959 834.845L488.606 835.042C490.175 835.519 491.814 835.727 493.453 835.655V835.655C501.457 835.308 508.188 829.537 509.754 821.68L509.96 820.645C511.261 814.121 520.501 813.881 522.138 820.329L522.539 821.906C524.554 829.838 531.231 835.72 539.354 836.716L545.735 837.499C547.706 837.741 549.699 837.741 551.67 837.499L557.402 836.796C565.916 835.751 572.915 829.587 575.026 821.273L575.311 820.154C577.027 813.395 586.664 813.496 588.237 820.29L588.596 821.835C590.407 829.653 597.209 835.304 605.226 835.653V835.653C606.91 835.726 608.594 835.513 610.206 835.022L610.693 834.874C619.179 832.292 626.401 826.647 630.955 819.035L641.567 801.297C644.556 796.302 649.079 792.406 654.462 790.19V790.19C700.282 771.333 731.631 728.343 735.578 678.952L736.848 663.064C742.941 586.819 693.411 517.206 619.382 497.968L612.361 496.143Z" fill="#FFF0D3"/>
</mask>
<g mask="url(#mask0)">
<g id="Union_2" filter="url(#filter9_di)">
<path d="M612.361 496.143C570.175 485.18 525.887 485.18 483.701 496.143L470.581 499.553C399.54 518.014 351.149 583.724 354.601 657.044L355.251 670.866C357.781 724.592 392.134 771.622 442.546 790.371V790.371C448.182 792.468 452.978 796.352 456.199 801.431L467.539 819.308C472.267 826.763 479.513 832.275 487.959 834.845L488.606 835.042C490.175 835.519 491.814 835.727 493.453 835.655V835.655C501.457 835.308 508.188 829.537 509.754 821.68L509.96 820.645C511.261 814.121 520.501 813.881 522.138 820.329L522.539 821.906C524.554 829.838 531.231 835.72 539.354 836.716L545.735 837.499C547.706 837.741 549.699 837.741 551.67 837.499L557.402 836.796C565.916 835.751 572.915 829.587 575.026 821.273L575.311 820.154C577.027 813.395 586.664 813.496 588.237 820.29L588.596 821.835C590.407 829.653 597.209 835.304 605.226 835.653V835.653C606.91 835.726 608.594 835.513 610.206 835.022L610.693 834.874C619.179 832.292 626.401 826.647 630.955 819.035L641.567 801.297C644.556 796.302 649.079 792.406 654.462 790.19V790.19C700.282 771.333 731.631 728.343 735.578 678.952L736.848 663.064C742.941 586.819 693.411 517.206 619.382 497.968L612.361 496.143Z" fill="url(#paint9_radial)"/>
</g>
<g id="Ellipse 8_2" filter="url(#filter10_f)">
<ellipse cx="488.375" cy="502.294" rx="67.6109" ry="26.3484" fill="white"/>
</g>
<g id="Ellipse 9" filter="url(#filter11_f)">
<ellipse cx="488.374" cy="502.295" rx="43.2511" ry="16.9027" fill="white"/>
</g>
<g id="Rectangle 4" opacity="0.4" filter="url(#filter12_f)">
<path d="M421.135 741.822C419.249 716.533 437.346 694.134 462.467 690.664L523.552 682.227C535.341 680.599 547.298 680.599 559.086 682.227L619.93 690.631C645.159 694.115 663.298 716.662 661.299 742.051V742.051C658.102 782.67 624.208 814.001 583.463 814.001H498.897C458.081 814.001 424.171 782.525 421.135 741.822V741.822Z" fill="url(#paint10_linear)"/>
</g>
<g id="Group 7">
<g id="Ellipse 1" filter="url(#filter13_dd)">
<circle cx="451.337" cy="627.822" r="51.4539" fill="url(#paint11_linear)"/>
</g>
<g id="Ellipse 2" filter="url(#filter14_dd)">
<circle cx="644.724" cy="627.822" r="51.4539" fill="url(#paint12_linear)"/>
</g>
</g>
<g id="Ellipse 10_2" filter="url(#filter15_f)">
<ellipse rx="46.173" ry="10.5469" transform="matrix(0.771824 -0.635836 0.664722 0.747091 636.913 811.609)" fill="white"/>
</g>
<g id="Ellipse 13" filter="url(#filter16_f)">
<ellipse rx="15.7526" ry="5.58771" transform="matrix(0.771824 -0.635836 0.664722 0.747091 627.733 825.246)" fill="white"/>
</g>
<g id="Ellipse 11" filter="url(#filter17_f)">
<ellipse cx="571.084" cy="834.776" rx="23.1724" ry="11.884" transform="rotate(-40.5683 571.084 834.776)" fill="white"/>
</g>
<g id="Ellipse 12" filter="url(#filter18_f)">
<ellipse cx="506.489" cy="837.728" rx="33.3048" ry="11.884" transform="rotate(-40.5683 506.489 837.728)" fill="white"/>
</g>
</g>
</g>
<g id="Group 42">
<g id="Group 8">
<text id="Captain Sem" fill="white" xml:space="preserve" style="white-space: pre" font-family="Poppins" font-size="20" font-weight="bold" letter-spacing="0em"><tspan x="327.943" y="841.437">Captain Sem</tspan></text>
<text id="Veteran Spooky Ghost" fill="white" xml:space="preserve" style="white-space: pre" font-family="Poppins" font-size="16" letter-spacing="0em"><tspan x="335.751" y="865.015">Veteran Spooky </tspan><tspan x="414.329" y="889.015">Ghost</tspan></text>
</g>
<g id="Group 9">
<path id="Vector 8" d="M482.37 782.946L482.37 863.323" stroke="#FF5B79"/>
<circle id="Ellipse 18" cx="482.37" cy="782.946" r="3.34904" fill="#FF5B79"/>
</g>
</g>
</g>
<defs>
<filter id="filter0_f" x="0.246017" y="0.246017" width="1078.67" height="921.572" filterUnits="userSpaceOnUse" color-interpolation-filters="sRGB">
<feFlood flood-opacity="0" result="BackgroundImageFix"/>
<feBlend mode="normal" in="SourceGraphic" in2="BackgroundImageFix" result="shape"/>
<feGaussianBlur stdDeviation="59.377" result="effect1_foregroundBlur"/>
</filter>
<filter id="filter1_f" x="180.707" y="306.981" width="726.693" height="712.773" filterUnits="userSpaceOnUse" color-interpolation-filters="sRGB">
<feFlood flood-opacity="0" result="BackgroundImageFix"/>
<feBlend mode="normal" in="SourceGraphic" in2="BackgroundImageFix" result="shape"/>
<feGaussianBlur stdDeviation="59.377" result="effect1_foregroundBlur"/>
</filter>
<filter id="filter2_f" x="201.09" y="326.867" width="685.928" height="673.002" filterUnits="userSpaceOnUse" color-interpolation-filters="sRGB">
<feFlood flood-opacity="0" result="BackgroundImageFix"/>
<feBlend mode="normal" in="SourceGraphic" in2="BackgroundImageFix" result="shape"/>
<feGaussianBlur stdDeviation="59.377" result="effect1_foregroundBlur"/>
</filter>
<filter id="filter3_f" x="142.4" y="56.3949" width="799.331" height="841.091" filterUnits="userSpaceOnUse" color-interpolation-filters="sRGB">
<feFlood flood-opacity="0" result="BackgroundImageFix"/>
<feBlend mode="normal" in="SourceGraphic" in2="BackgroundImageFix" result="shape"/>
<feGaussianBlur stdDeviation="56.4081" result="effect1_foregroundBlur"/>
</filter>
<filter id="filter4_f" x="251.96" y="252.457" width="580.211" height="645.336" filterUnits="userSpaceOnUse" color-interpolation-filters="sRGB">
<feFlood flood-opacity="0" result="BackgroundImageFix"/>
<feBlend mode="normal" in="SourceGraphic" in2="BackgroundImageFix" result="shape"/>
<feGaussianBlur stdDeviation="23.7508" result="effect1_foregroundBlur"/>
</filter>
<filter id="filter5_f" x="237.755" y="183.316" width="587.067" height="659.744" filterUnits="userSpaceOnUse" color-interpolation-filters="sRGB">
<feFlood flood-opacity="0" result="BackgroundImageFix"/>
<feBlend mode="normal" in="SourceGraphic" in2="BackgroundImageFix" result="shape"/>
<feGaussianBlur stdDeviation="13.206" result="effect1_foregroundBlur"/>
</filter>
<filter id="filter6_f" x="161.319" y="168.776" width="769.447" height="790.327" filterUnits="userSpaceOnUse" color-interpolation-filters="sRGB">
<feFlood flood-opacity="0" result="BackgroundImageFix"/>
<feBlend mode="normal" in="SourceGraphic" in2="BackgroundImageFix" result="shape"/>
<feGaussianBlur stdDeviation="59.377" result="effect1_foregroundBlur"/>
</filter>
<filter id="filter7_f" x="309.985" y="308.757" width="472.039" height="535.198" filterUnits="userSpaceOnUse" color-interpolation-filters="sRGB">
<feFlood flood-opacity="0" result="BackgroundImageFix"/>
<feBlend mode="normal" in="SourceGraphic" in2="BackgroundImageFix" result="shape"/>
<feGaussianBlur stdDeviation="10.391" result="effect1_foregroundBlur"/>
</filter>
<filter id="filter8_f" x="368.095" y="366.604" width="320.102" height="248.513" filterUnits="userSpaceOnUse" color-interpolation-filters="sRGB">
<feFlood flood-opacity="0" result="BackgroundImageFix"/>
<feBlend mode="normal" in="SourceGraphic" in2="BackgroundImageFix" result="shape"/>
<feGaussianBlur stdDeviation="39.5085" result="effect1_foregroundBlur"/>
</filter>
<filter id="filter9_di" x="334.833" y="472.87" width="413.209" height="373.123" filterUnits="userSpaceOnUse" color-interpolation-filters="sRGB">
<feFlood flood-opacity="0" result="BackgroundImageFix"/>
<feColorMatrix in="SourceAlpha" type="matrix" values="0 0 0 0 0 0 0 0 0 0 0 0 0 0 0 0 0 0 127 0" result="hardAlpha"/>
<feOffset dx="7.71901" dy="5.34393"/>
<feGaussianBlur stdDeviation="1.48442"/>
<feColorMatrix type="matrix" values="0 0 0 0 1 0 0 0 0 0 0 0 0 0 0.12 0 0 0 1 0"/>
<feBlend mode="normal" in2="BackgroundImageFix" result="effect1_dropShadow"/>
<feBlend mode="normal" in="SourceGraphic" in2="effect1_dropShadow" result="shape"/>
<feColorMatrix in="SourceAlpha" type="matrix" values="0 0 0 0 0 0 0 0 0 0 0 0 0 0 0 0 0 0 127 0" result="hardAlpha"/>
<feOffset dx="-19.5944" dy="-15.0507"/>
<feGaussianBlur stdDeviation="15.0507"/>
<feComposite in2="hardAlpha" operator="arithmetic" k2="-1" k3="1"/>
<feColorMatrix type="matrix" values="0 0 0 0 0 0 0 0 0 1 0 0 0 0 0.94 0 0 0 0.31 0"/>
<feBlend mode="normal" in2="shape" result="effect2_innerShadow"/>
</filter>
<filter id="filter10_f" x="361.387" y="416.569" width="253.976" height="171.451" filterUnits="userSpaceOnUse" color-interpolation-filters="sRGB">
<feFlood flood-opacity="0" result="BackgroundImageFix"/>
<feBlend mode="normal" in="SourceGraphic" in2="BackgroundImageFix" result="shape"/>
<feGaussianBlur stdDeviation="29.6885" result="effect1_foregroundBlur"/>
</filter>
<filter id="filter11_f" x="385.746" y="426.015" width="205.256" height="152.559" filterUnits="userSpaceOnUse" color-interpolation-filters="sRGB">
<feFlood flood-opacity="0" result="BackgroundImageFix"/>
<feBlend mode="normal" in="SourceGraphic" in2="BackgroundImageFix" result="shape"/>
<feGaussianBlur stdDeviation="29.6885" result="effect1_foregroundBlur"/>
</filter>
<filter id="filter12_f" x="331.935" y="591.941" width="418.58" height="311.126" filterUnits="userSpaceOnUse" color-interpolation-filters="sRGB">
<feFlood flood-opacity="0" result="BackgroundImageFix"/>
<feBlend mode="normal" in="SourceGraphic" in2="BackgroundImageFix" result="shape"/>
<feGaussianBlur stdDeviation="44.5327" result="effect1_foregroundBlur"/>
</filter>
<filter id="filter13_dd" x="367.488" y="557.312" width="181.037" height="184.848" filterUnits="userSpaceOnUse" color-interpolation-filters="sRGB">
<feFlood flood-opacity="0" result="BackgroundImageFix"/>
<feColorMatrix in="SourceAlpha" type="matrix" values="0 0 0 0 0 0 0 0 0 0 0 0 0 0 0 0 0 0 127 0" result="hardAlpha"/>
<feOffset dx="6.66956" dy="23.8198"/>
<feGaussianBlur stdDeviation="19.5323"/>
<feColorMatrix type="matrix" values="0 0 0 0 0.758333 0 0 0 0 0.408363 0 0 0 0 0.0853125 0 0 0 0.77 0"/>
<feBlend mode="normal" in2="BackgroundImageFix" result="effect1_dropShadow"/>
<feColorMatrix in="SourceAlpha" type="matrix" values="0 0 0 0 0 0 0 0 0 0 0 0 0 0 0 0 0 0 127 0" result="hardAlpha"/>
<feOffset dx="-4.76397" dy="-4.76397"/>
<feGaussianBlur stdDeviation="7.14595"/>
<feColorMatrix type="matrix" values="0 0 0 0 1 0 0 0 0 1 0 0 0 0 1 0 0 0 0.59 0"/>
<feBlend mode="normal" in2="effect1_dropShadow" result="effect2_dropShadow"/>
<feBlend mode="normal" in="SourceGraphic" in2="effect2_dropShadow" result="shape"/>
</filter>
<filter id="filter14_dd" x="547.536" y="557.312" width="181.037" height="184.848" filterUnits="userSpaceOnUse" color-interpolation-filters="sRGB">
<feFlood flood-opacity="0" result="BackgroundImageFix"/>
<feColorMatrix in="SourceAlpha" type="matrix" values="0 0 0 0 0 0 0 0 0 0 0 0 0 0 0 0 0 0 127 0" result="hardAlpha"/>
<feOffset dx="-6.66956" dy="23.8198"/>
<feGaussianBlur stdDeviation="19.5323"/>
<feColorMatrix type="matrix" values="0 0 0 0 0.758333 0 0 0 0 0.408363 0 0 0 0 0.0853125 0 0 0 0.77 0"/>
<feBlend mode="normal" in2="BackgroundImageFix" result="effect1_dropShadow"/>
<feColorMatrix in="SourceAlpha" type="matrix" values="0 0 0 0 0 0 0 0 0 0 0 0 0 0 0 0 0 0 127 0" result="hardAlpha"/>
<feOffset dx="4.76397" dy="-4.76397"/>
<feGaussianBlur stdDeviation="7.14595"/>
<feColorMatrix type="matrix" values="0 0 0 0 1 0 0 0 0 1 0 0 0 0 1 0 0 0 0.59 0"/>
<feBlend mode="normal" in2="effect1_dropShadow" result="effect2_dropShadow"/>
<feBlend mode="normal" in="SourceGraphic" in2="effect2_dropShadow" result="shape"/>
</filter>
<filter id="filter15_f" x="559.022" y="739.64" width="155.782" height="143.938" filterUnits="userSpaceOnUse" color-interpolation-filters="sRGB">
<feFlood flood-opacity="0" result="BackgroundImageFix"/>
<feBlend mode="normal" in="SourceGraphic" in2="BackgroundImageFix" result="shape"/>
<feGaussianBlur stdDeviation="20.7819" result="effect1_foregroundBlur"/>
</filter>
<filter id="filter16_f" x="591.266" y="790.641" width="72.9342" height="69.2097" filterUnits="userSpaceOnUse" color-interpolation-filters="sRGB">
<feFlood flood-opacity="0" result="BackgroundImageFix"/>
<feBlend mode="normal" in="SourceGraphic" in2="BackgroundImageFix" result="shape"/>
<feGaussianBlur stdDeviation="11.8754" result="effect1_foregroundBlur"/>
</filter>
<filter id="filter17_f" x="504.189" y="769.114" width="133.79" height="131.323" filterUnits="userSpaceOnUse" color-interpolation-filters="sRGB">
<feFlood flood-opacity="0" result="BackgroundImageFix"/>
<feBlend mode="normal" in="SourceGraphic" in2="BackgroundImageFix" result="shape"/>
<feGaussianBlur stdDeviation="20.7819" result="effect1_foregroundBlur"/>
</filter>
<filter id="filter18_f" x="431.897" y="765.477" width="149.184" height="144.502" filterUnits="userSpaceOnUse" color-interpolation-filters="sRGB">
<feFlood flood-opacity="0" result="BackgroundImageFix"/>
<feBlend mode="normal" in="SourceGraphic" in2="BackgroundImageFix" result="shape"/>
<feGaussianBlur stdDeviation="20.7819" result="effect1_foregroundBlur"/>
</filter>
<linearGradient id="paint0_linear" x1="713.96" y1="169.61" x2="595.62" y2="682.299" gradientUnits="userSpaceOnUse">
<stop stop-color="#B9FF8D" stop-opacity="0"/>
<stop offset="0.50718" stop-color="#46FF85" stop-opacity="0.12"/>
<stop offset="1" stop-color="#FFE600" stop-opacity="0"/>
</linearGradient>
<linearGradient id="paint1_linear" x1="544.054" y1="425.735" x2="544.054" y2="901" gradientUnits="userSpaceOnUse">
<stop stop-color="#50FF76" stop-opacity="0.38"/>
<stop offset="1" stop-color="#50FFA0" stop-opacity="0"/>
</linearGradient>
<linearGradient id="paint2_linear" x1="544.054" y1="445.621" x2="544.054" y2="650.14" gradientUnits="userSpaceOnUse">
<stop stop-color="#FFFACE"/>
<stop offset="1" stop-color="white" stop-opacity="0"/>
</linearGradient>
<linearGradient id="paint3_linear" x1="540.885" y1="224.296" x2="540.885" y2="800.238" gradientUnits="userSpaceOnUse">
<stop stop-color="#A6FFEA" stop-opacity="0.95"/>
<stop offset="1" stop-color="#F6EB4E" stop-opacity="0"/>
</linearGradient>
<linearGradient id="paint4_linear" x1="720.29" y1="373.535" x2="543.064" y2="864.934" gradientUnits="userSpaceOnUse">
<stop stop-color="#FFFBA0" stop-opacity="0.15"/>
<stop offset="1" stop-color="#3AFFE7" stop-opacity="0.06"/>
</linearGradient>
<radialGradient id="paint5_radial" cx="0" cy="0" r="1" gradientUnits="userSpaceOnUse" gradientTransform="translate(453.326 448.106) rotate(-0.802419) scale(177.496 287.488)">
<stop stop-color="#EDFFA4" stop-opacity="0.3"/>
<stop offset="1" stop-color="#B2FF50" stop-opacity="0"/>
</radialGradient>
<linearGradient id="paint6_linear" x1="776.765" y1="428.943" x2="513.971" y2="764.125" gradientUnits="userSpaceOnUse">
<stop stop-color="#301758"/>
<stop offset="1" stop-color="#301658"/>
</linearGradient>
<linearGradient id="paint7_linear" x1="732.719" y1="455.812" x2="493.595" y2="732.221" gradientUnits="userSpaceOnUse">
<stop stop-color="#EDFFA4" stop-opacity="0.3"/>
<stop offset="1" stop-color="#B2FF50" stop-opacity="0.17"/>
</linearGradient>
<linearGradient id="paint8_linear" x1="457.851" y1="464.779" x2="492.76" y2="543.031" gradientUnits="userSpaceOnUse">
<stop stop-color="white" stop-opacity="0.71"/>
<stop offset="1" stop-color="#FFFFF8" stop-opacity="0.7"/>
</linearGradient>
<radialGradient id="paint9_radial" cx="0" cy="0" r="1" gradientUnits="userSpaceOnUse" gradientTransform="translate(548.031 530.134) rotate(91.118) scale(318.478 257.381)">
<stop stop-color="#FFF0D3"/>
<stop offset="0.420971" stop-color="#FFED48" stop-opacity="0.990923"/>
<stop offset="0.829897" stop-color="#FFD643" stop-opacity="0.77"/>
<stop offset="1" stop-color="#C69F17"/>
</radialGradient>
<linearGradient id="paint10_linear" x1="541.319" y1="679.773" x2="541.319" y2="814.001" gradientUnits="userSpaceOnUse">
<stop stop-color="#9E4722"/>
<stop offset="1" stop-color="#BB391C" stop-opacity="0.87"/>
</linearGradient>
<linearGradient id="paint11_linear" x1="451.337" y1="583.749" x2="451.378" y2="688.397" gradientUnits="userSpaceOnUse">
<stop stop-color="#2E1E65"/>
<stop offset="1" stop-color="#11082F"/>
</linearGradient>
<linearGradient id="paint12_linear" x1="644.724" y1="583.749" x2="644.765" y2="688.397" gradientUnits="userSpaceOnUse">
<stop stop-color="#2E1E65"/>
<stop offset="1" stop-color="#11082F"/>
</linearGradient>
</defs>
</svg>
